<mxfile host="app.diagrams.net" modified="2023-10-08T09:00:31.817Z" agent="Mozilla/5.0 (Windows NT 10.0; Win64; x64) AppleWebKit/537.36 (KHTML, like Gecko) Chrome/117.0.0.0 Safari/537.36 Edg/117.0.2045.47" etag="2aIlaLjB2B3_BR199ddo" version="22.0.4" type="device">
  <diagram name="Page-1" id="JVvjHOurPsPDHVPbg6DF">
    <mxGraphModel dx="1062" dy="592" grid="1" gridSize="10" guides="1" tooltips="1" connect="1" arrows="1" fold="1" page="1" pageScale="1" pageWidth="850" pageHeight="1100" math="0" shadow="0">
      <root>
        <mxCell id="0" />
        <mxCell id="1" parent="0" />
        <mxCell id="r4F9Ynr7CZO8yngD0N1w-14" style="edgeStyle=orthogonalEdgeStyle;rounded=0;orthogonalLoop=1;jettySize=auto;html=1;entryX=0;entryY=0.5;entryDx=0;entryDy=0;" edge="1" parent="1" source="r4F9Ynr7CZO8yngD0N1w-1" target="r4F9Ynr7CZO8yngD0N1w-3">
          <mxGeometry relative="1" as="geometry" />
        </mxCell>
        <mxCell id="r4F9Ynr7CZO8yngD0N1w-1" value="Выбор лэйаута из списка существущих либо создание нового" style="rounded=1;whiteSpace=wrap;html=1;" vertex="1" parent="1">
          <mxGeometry x="180" y="150" width="180" height="60" as="geometry" />
        </mxCell>
        <mxCell id="r4F9Ynr7CZO8yngD0N1w-15" style="edgeStyle=orthogonalEdgeStyle;rounded=0;orthogonalLoop=1;jettySize=auto;html=1;entryX=0;entryY=0.5;entryDx=0;entryDy=0;" edge="1" parent="1" source="r4F9Ynr7CZO8yngD0N1w-2" target="r4F9Ynr7CZO8yngD0N1w-1">
          <mxGeometry relative="1" as="geometry" />
        </mxCell>
        <mxCell id="r4F9Ynr7CZO8yngD0N1w-2" value="" style="ellipse;whiteSpace=wrap;html=1;aspect=fixed;fillColor=#000000;" vertex="1" parent="1">
          <mxGeometry x="70" y="155" width="50" height="50" as="geometry" />
        </mxCell>
        <mxCell id="r4F9Ynr7CZO8yngD0N1w-8" style="edgeStyle=orthogonalEdgeStyle;rounded=0;orthogonalLoop=1;jettySize=auto;html=1;exitX=0.25;exitY=1;exitDx=0;exitDy=0;entryX=0.25;entryY=0;entryDx=0;entryDy=0;" edge="1" parent="1" source="r4F9Ynr7CZO8yngD0N1w-3" target="r4F9Ynr7CZO8yngD0N1w-4">
          <mxGeometry relative="1" as="geometry" />
        </mxCell>
        <mxCell id="r4F9Ynr7CZO8yngD0N1w-10" style="rounded=0;orthogonalLoop=1;jettySize=auto;html=1;exitX=1;exitY=0.5;exitDx=0;exitDy=0;entryX=0.001;entryY=0.201;entryDx=0;entryDy=0;entryPerimeter=0;" edge="1" parent="1" source="r4F9Ynr7CZO8yngD0N1w-3" target="r4F9Ynr7CZO8yngD0N1w-5">
          <mxGeometry relative="1" as="geometry" />
        </mxCell>
        <mxCell id="r4F9Ynr7CZO8yngD0N1w-3" value="Редактирование лэйаута в режиме рисования стен" style="rounded=1;whiteSpace=wrap;html=1;" vertex="1" parent="1">
          <mxGeometry x="390" y="150" width="180" height="60" as="geometry" />
        </mxCell>
        <mxCell id="r4F9Ynr7CZO8yngD0N1w-9" style="edgeStyle=orthogonalEdgeStyle;rounded=0;orthogonalLoop=1;jettySize=auto;html=1;exitX=0.75;exitY=0;exitDx=0;exitDy=0;entryX=0.75;entryY=1;entryDx=0;entryDy=0;" edge="1" parent="1" source="r4F9Ynr7CZO8yngD0N1w-4" target="r4F9Ynr7CZO8yngD0N1w-3">
          <mxGeometry relative="1" as="geometry" />
        </mxCell>
        <mxCell id="r4F9Ynr7CZO8yngD0N1w-4" value="Редактирование лэйаута в режиме размещения объектов" style="rounded=1;whiteSpace=wrap;html=1;" vertex="1" parent="1">
          <mxGeometry x="390" y="240" width="180" height="60" as="geometry" />
        </mxCell>
        <mxCell id="r4F9Ynr7CZO8yngD0N1w-17" style="edgeStyle=orthogonalEdgeStyle;rounded=0;orthogonalLoop=1;jettySize=auto;html=1;entryX=0;entryY=0.5;entryDx=0;entryDy=0;" edge="1" parent="1" source="r4F9Ynr7CZO8yngD0N1w-5" target="r4F9Ynr7CZO8yngD0N1w-16">
          <mxGeometry relative="1" as="geometry" />
        </mxCell>
        <mxCell id="r4F9Ynr7CZO8yngD0N1w-5" value="Рендер получающейся конфигурации в 3D" style="rounded=1;whiteSpace=wrap;html=1;" vertex="1" parent="1">
          <mxGeometry x="610" y="150" width="180" height="150" as="geometry" />
        </mxCell>
        <mxCell id="r4F9Ynr7CZO8yngD0N1w-11" style="rounded=0;orthogonalLoop=1;jettySize=auto;html=1;exitX=0.001;exitY=0.271;exitDx=0;exitDy=0;entryX=1.001;entryY=0.673;entryDx=0;entryDy=0;entryPerimeter=0;exitPerimeter=0;" edge="1" parent="1" source="r4F9Ynr7CZO8yngD0N1w-5" target="r4F9Ynr7CZO8yngD0N1w-3">
          <mxGeometry relative="1" as="geometry">
            <mxPoint x="580" y="190" as="sourcePoint" />
            <mxPoint x="620" y="190" as="targetPoint" />
          </mxGeometry>
        </mxCell>
        <mxCell id="r4F9Ynr7CZO8yngD0N1w-12" style="rounded=0;orthogonalLoop=1;jettySize=auto;html=1;exitX=1;exitY=0.5;exitDx=0;exitDy=0;entryX=0.001;entryY=0.201;entryDx=0;entryDy=0;entryPerimeter=0;" edge="1" parent="1">
          <mxGeometry relative="1" as="geometry">
            <mxPoint x="570" y="250" as="sourcePoint" />
            <mxPoint x="610" y="250" as="targetPoint" />
          </mxGeometry>
        </mxCell>
        <mxCell id="r4F9Ynr7CZO8yngD0N1w-13" style="rounded=0;orthogonalLoop=1;jettySize=auto;html=1;exitX=0.001;exitY=0.736;exitDx=0;exitDy=0;entryX=1.001;entryY=0.673;entryDx=0;entryDy=0;entryPerimeter=0;exitPerimeter=0;" edge="1" parent="1" source="r4F9Ynr7CZO8yngD0N1w-5">
          <mxGeometry relative="1" as="geometry">
            <mxPoint x="610" y="261" as="sourcePoint" />
            <mxPoint x="570" y="260" as="targetPoint" />
          </mxGeometry>
        </mxCell>
        <mxCell id="r4F9Ynr7CZO8yngD0N1w-16" value="Оформление заказа" style="rounded=1;whiteSpace=wrap;html=1;" vertex="1" parent="1">
          <mxGeometry x="840" y="205" width="140" height="40" as="geometry" />
        </mxCell>
      </root>
    </mxGraphModel>
  </diagram>
</mxfile>
